<?xml version="1.0" standalone="no"?><!DOCTYPE svg PUBLIC "-//W3C//DTD SVG 1.1//EN" "http://www.w3.org/Graphics/SVG/1.1/DTD/svg11.dtd"><svg class="icon" width="200px" height="200.00px" viewBox="0 0 1024 1024" version="1.1" xmlns="http://www.w3.org/2000/svg"><path fill="#333333" d="M236.088889 907.377778l-102.4 28.444444c-62.577778 17.066667-99.555556-19.911111-85.333333-82.488889l22.755555-105.244444C25.6 679.822222 0 597.333333 0 512 0 253.155556 230.4 42.666667 512 42.666667S1024 253.155556 1024 512s-230.4 469.333333-512 469.333333c-96.711111 0-193.422222-25.6-275.911111-73.955555z m5.688889-36.977778c79.644444 48.355556 173.511111 73.955556 270.222222 73.955556 264.533333 0 480.711111-193.422222 480.711111-435.2S776.533333 76.8 512 76.8 31.288889 273.066667 31.288889 512c0 79.644444 25.6 159.288889 73.955555 227.555556l8.533334 11.377777-22.755556 99.555556c-8.533333 31.288889 11.377778 51.2 42.666667 39.822222l99.555555-28.444444 8.533334 8.533333z m361.244444-455.111111h-278.755555c-5.688889 0-8.533333-2.844444-11.377778-5.688889s-5.688889-5.688889-5.688889-11.377778 2.844444-8.533333 5.688889-11.377778 5.688889-5.688889 11.377778-5.688888h278.755555c5.688889 0 8.533333 2.844444 11.377778 5.688888 2.844444 2.844444 5.688889 5.688889 5.688889 11.377778s-2.844444 8.533333-5.688889 11.377778c-2.844444 5.688889-8.533333 5.688889-11.377778 5.688889z m122.311111 0h-48.355555c-2.844444 0-5.688889-2.844444-11.377778-5.688889s-5.688889-5.688889-5.688889-11.377778 2.844444-8.533333 5.688889-11.377778 5.688889-5.688889 11.377778-5.688888h48.355555c5.688889 0 8.533333 2.844444 11.377778 5.688888s5.688889 5.688889 5.688889 11.377778-2.844444 8.533333-5.688889 11.377778-5.688889 5.688889-11.377778 5.688889z m-216.177777 156.444444h-170.666667c-5.688889 0-8.533333-2.844444-11.377778-5.688889-2.844444-2.844444-5.688889-8.533333-5.688889-11.377777s2.844444-8.533333 5.688889-11.377778c2.844444-2.844444 5.688889-5.688889 11.377778-5.688889h170.666667c2.844444 0 8.533333 2.844444 11.377777 5.688889s5.688889 5.688889 5.688889 11.377778c0 2.844444-2.844444 8.533333-5.688889 11.377777-2.844444 5.688889-8.533333 5.688889-11.377777 5.688889z m93.866666 0h-31.288889c-5.688889 0-8.533333-2.844444-11.377777-5.688889s-5.688889-8.533333-5.688889-11.377777 2.844444-8.533333 5.688889-11.377778 5.688889-5.688889 11.377777-5.688889h31.288889c5.688889 0 8.533333 2.844444 11.377778 5.688889s5.688889 5.688889 5.688889 11.377778c0 2.844444-2.844444 8.533333-5.688889 11.377777-2.844444 5.688889-8.533333 5.688889-11.377778 5.688889z"  /></svg>